<?xml version="1.0" standalone="no"?>
<!DOCTYPE svg PUBLIC "-//W3C//DTD SVG 20010904//EN"
 "http://www.w3.org/TR/2001/REC-SVG-20010904/DTD/svg10.dtd">
<svg version="1.0" xmlns="http://www.w3.org/2000/svg"
 width="1200.000000pt" height="1200.000000pt" viewBox="0 0 1200.000000 1200.000000"
 preserveAspectRatio="xMidYMid meet">

<g transform="translate(0.000000,1200.000000) scale(0.100000,-0.100000)"
fill="#000000" stroke="none">
<path d="M5941 11424 l-21 -27 0 -1426 c0 -1365 -8 -1951 -30 -2256 -35 -472
-94 -765 -200 -993 -52 -110 -111 -191 -201 -277 -219 -208 -533 -298 -1199
-346 -102 -8 -764 -13 -1922 -16 -1749 -4 -1767 -5 -1793 -24 -36 -29 -35 -89
1 -118 l27 -21 1566 0 c1566 0 2011 -7 2321 -36 518 -47 800 -141 999 -329
200 -190 302 -443 366 -910 53 -390 65 -869 65 -2616 l0 -1426 21 -27 c29 -37
89 -37 118 0 l21 27 0 1431 c0 787 5 1584 10 1771 19 659 63 1026 155 1310
145 442 426 650 1000 739 367 57 731 66 2586 66 l1566 0 27 21 c20 16 26 29
26 59 0 30 -6 43 -26 59 l-27 21 -1566 0 c-1567 0 -2012 7 -2321 36 -519 48
-800 141 -999 329 -199 189 -300 440 -365 905 -54 385 -66 869 -66 2616 l0
1431 -21 27 c-16 20 -29 26 -59 26 -30 0 -43 -6 -59 -26z m69 -4246 c0 -13 13
-80 29 -149 71 -306 167 -503 325 -668 122 -126 273 -218 461 -281 l93 -31 0
-49 0 -49 -93 -31 c-188 -63 -339 -155 -461 -281 -158 -165 -254 -362 -325
-668 -16 -69 -29 -136 -29 -148 0 -42 -18 -24 -24 25 -13 88 -68 297 -101 382
-69 180 -138 292 -249 409 -122 126 -273 218 -461 281 l-93 31 0 49 0 49 93
31 c188 63 339 155 461 281 108 114 176 222 244 395 33 82 96 317 106 396 7
49 24 67 24 26z"/>
<path d="M4410 9872 c-16 -17 -30 -38 -30 -46 0 -33 511 -1291 532 -1308 45
-39 128 -5 128 53 0 35 -495 1275 -519 1301 -9 10 -30 20 -48 24 -27 5 -37 1
-63 -24z"/>
<path d="M7557 9842 c-13 -15 -163 -360 -488 -1127 -32 -76 -59 -149 -59 -161
0 -12 9 -33 21 -48 25 -32 86 -37 112 -8 27 29 547 1258 547 1292 0 17 -9 39
-20 50 -26 26 -90 27 -113 2z"/>
<path d="M2390 9610 c-13 -13 -20 -33 -20 -57 0 -35 12 -50 218 -255 205 -206
220 -218 255 -218 49 0 77 28 77 77 0 35 -12 50 -218 255 -205 206 -220 218
-255 218 -24 0 -44 -7 -57 -20z"/>
<path d="M9302 9407 c-238 -239 -243 -247 -201 -301 15 -20 29 -26 58 -26 35
0 49 12 259 223 238 239 243 247 201 301 -15 20 -29 26 -58 26 -35 0 -49 -12
-259 -223z"/>
<path d="M3079 8921 c-58 -59 -68 -47 449 -563 449 -450 469 -468 505 -468 49
0 77 28 77 77 0 36 -18 56 -467 505 -517 517 -505 507 -564 449z"/>
<path d="M8368 8472 c-513 -512 -502 -499 -457 -556 15 -20 29 -26 57 -26 35
0 57 20 510 473 488 489 487 487 466 542 -7 18 -55 45 -81 45 -10 0 -221 -204
-495 -478z"/>
<path d="M2160 7670 c-26 -26 -27 -90 -2 -113 24 -22 1260 -547 1287 -547 12
0 34 9 49 21 32 25 37 86 8 112 -29 27 -1258 547 -1292 547 -17 0 -39 -9 -50
-20z"/>
<path d="M9170 7364 c-384 -154 -642 -263 -652 -276 -39 -45 -5 -128 53 -128
35 0 1275 495 1301 519 10 9 20 30 24 47 7 36 -25 80 -66 89 -18 3 -210 -69
-660 -251z"/>
<path d="M2767 4786 c-346 -139 -635 -259 -642 -267 -8 -8 -17 -28 -21 -44 -7
-36 22 -79 61 -89 32 -8 1290 494 1318 526 39 46 4 128 -56 128 -18 -1 -313
-114 -660 -254z"/>
<path d="M8506 4969 c-32 -25 -37 -86 -8 -112 29 -27 1258 -547 1292 -547 17
0 39 9 50 20 26 26 27 90 2 113 -24 22 -1260 547 -1287 547 -12 0 -34 -9 -49
-21z"/>
<path d="M3503 3617 c-451 -450 -493 -495 -493 -525 0 -44 38 -82 82 -82 30 0
76 43 525 492 476 476 493 494 493 530 0 50 -28 78 -77 78 -36 0 -56 -18 -530
-493z"/>
<path d="M7916 4084 c-17 -18 -26 -38 -26 -58 0 -27 52 -83 473 -503 446 -447
474 -473 508 -473 46 0 79 33 79 81 0 31 -33 67 -473 506 -420 421 -476 473
-503 473 -20 0 -40 -9 -58 -26z"/>
<path d="M4857 3502 c-27 -29 -547 -1258 -547 -1292 0 -17 9 -39 20 -50 26
-26 90 -27 113 -2 14 15 105 225 456 1051 50 118 91 224 91 236 0 12 -9 34
-21 49 -25 32 -86 37 -112 8z"/>
<path d="M6986 3479 c-18 -14 -26 -30 -26 -50 0 -35 495 -1275 519 -1301 9
-10 30 -20 48 -24 27 -5 37 -1 63 24 16 17 30 38 30 46 0 33 -511 1291 -532
1309 -27 23 -69 22 -102 -4z"/>
<path d="M2810 2910 c-8 -5 -110 -105 -227 -222 -200 -200 -213 -215 -213
-250 0 -28 6 -42 26 -57 54 -42 62 -37 301 201 211 210 223 224 223 259 0 58
-64 98 -110 69z"/>
<path d="M9123 2908 c-27 -13 -47 -60 -40 -90 4 -13 105 -121 225 -240 194
-194 222 -218 250 -218 44 0 82 38 82 82 0 29 -23 56 -223 255 -232 232 -239
238 -294 211z"/>
</g>
</svg>
