<?xml version="1.0" standalone="no"?>
<!DOCTYPE svg PUBLIC "-//W3C//DTD SVG 20010904//EN"
 "http://www.w3.org/TR/2001/REC-SVG-20010904/DTD/svg10.dtd">
<svg version="1.0" xmlns="http://www.w3.org/2000/svg"
 width="1200.000000pt" height="1200.000000pt" viewBox="0 0 1200.000000 1200.000000"
 preserveAspectRatio="xMidYMid meet">

<g transform="translate(0.000000,1200.000000) scale(0.100000,-0.100000)"
fill="#000000" stroke="none">
<path d="M5975 11486 c-15 -11 -26 -63 -61 -297 -142 -938 -219 -1657 -264
-2464 -6 -110 -12 -203 -13 -207 -1 -5 -33 40 -72 99 -47 73 -105 143 -180
218 -115 116 -187 168 -342 250 -245 128 -487 378 -597 617 -37 79 -44 102
-106 360 -66 273 -134 420 -250 538 -102 103 -233 159 -371 160 -57 0 -79 -11
-79 -42 0 -10 53 -71 119 -136 129 -127 184 -208 227 -330 30 -88 47 -209 40
-281 -4 -31 -16 -141 -27 -246 -24 -209 -22 -355 6 -460 29 -112 69 -177 197
-317 234 -258 325 -386 373 -529 23 -70 27 -100 27 -184 0 -95 -24 -239 -43
-259 -4 -5 -70 47 -151 121 -456 413 -974 844 -1483 1234 -317 243 -762 569
-777 569 -18 0 -48 -32 -48 -51 1 -17 414 -576 666 -899 379 -488 750 -930
1136 -1356 70 -78 128 -144 128 -148 0 -16 -118 -38 -226 -43 -107 -5 -131 -3
-195 17 -167 50 -284 131 -572 396 -105 97 -188 149 -287 179 -84 26 -289 30
-445 10 -71 -9 -195 -19 -275 -22 -128 -5 -155 -3 -223 16 -96 26 -182 68
-267 132 -68 50 -163 143 -195 192 -27 42 -51 52 -82 32 -25 -17 -26 -20 -20
-94 17 -218 128 -371 351 -483 101 -51 212 -87 411 -133 190 -44 228 -56 320
-102 255 -127 459 -333 614 -621 34 -62 73 -130 88 -150 98 -132 228 -252 382
-352 45 -29 80 -54 79 -55 -2 -2 -93 -8 -203 -14 -810 -47 -1437 -112 -2360
-248 -307 -45 -393 -61 -407 -75 -22 -22 -22 -29 -4 -53 11 -15 63 -26 293
-61 740 -112 1398 -189 1998 -234 197 -14 604 -40 643 -40 42 0 41 -11 -5 -35
-72 -38 -228 -163 -306 -244 -82 -86 -161 -200 -220 -316 -129 -257 -421 -526
-670 -620 -38 -14 -148 -44 -245 -66 -266 -62 -400 -114 -528 -205 -118 -83
-190 -192 -219 -329 -26 -126 -17 -185 30 -185 14 0 33 10 43 22 90 115 234
239 337 291 151 75 268 88 530 56 236 -28 441 -30 535 -5 117 32 181 71 322
199 313 283 448 369 628 398 73 12 230 1 303 -22 17 -6 38 -13 45 -15 8 -2
-39 -62 -120 -151 -398 -439 -806 -927 -1189 -1423 -253 -327 -619 -826 -619
-842 0 -19 32 -48 51 -48 17 1 576 414 899 666 489 380 930 750 1358 1137 92
83 147 126 153 120 18 -18 40 -158 41 -253 2 -219 -89 -378 -419 -734 -193
-209 -230 -362 -182 -766 39 -335 29 -441 -56 -610 -56 -112 -158 -233 -258
-307 -42 -31 -48 -40 -45 -67 4 -46 36 -53 151 -34 292 48 453 262 562 746 43
193 62 250 119 357 61 115 144 225 246 325 100 98 176 156 292 222 46 25 109
61 140 79 147 83 298 233 420 416 34 51 63 92 64 90 1 -1 7 -92 13 -202 47
-810 112 -1437 248 -2360 45 -307 61 -393 75 -407 22 -22 29 -22 53 -4 15 11
26 63 61 297 142 938 219 1657 264 2464 6 110 12 204 13 208 2 5 30 -34 64
-85 117 -179 274 -334 421 -417 31 -18 94 -54 140 -79 121 -69 195 -126 302
-233 138 -138 257 -320 303 -464 9 -27 31 -113 48 -190 80 -362 185 -568 342
-675 83 -57 135 -76 243 -91 103 -15 134 -5 134 40 0 24 -10 36 -49 65 -58 43
-156 146 -201 211 -43 63 -105 197 -121 265 -18 75 -16 238 7 400 25 183 25
421 0 510 -30 108 -78 187 -188 305 -324 350 -413 508 -411 730 1 99 26 239
44 251 5 3 74 -52 152 -123 455 -413 974 -844 1482 -1234 317 -243 762 -569
777 -569 18 0 48 32 48 51 -1 17 -414 576 -666 899 -382 491 -757 939 -1141
1362 -73 81 -130 149 -126 151 31 18 182 41 273 41 88 0 117 -4 179 -27 143
-51 271 -141 524 -370 146 -132 208 -171 327 -203 93 -25 297 -23 535 5 284
35 406 17 580 -85 72 -43 227 -183 287 -261 10 -13 29 -23 43 -23 47 0 56 59
30 185 -59 277 -287 437 -774 539 -141 30 -193 47 -286 91 -124 60 -226 135
-350 260 -127 127 -193 215 -268 357 -63 120 -118 198 -201 286 -78 83 -216
193 -302 242 -30 18 -54 33 -52 35 2 1 93 8 203 14 810 47 1437 112 2360 248
307 45 393 61 407 75 22 22 22 29 4 53 -11 15 -63 26 -293 61 -926 140 -1661
219 -2468 264 -110 6 -204 12 -209 14 -5 1 28 26 74 55 155 101 285 220 383
353 15 20 54 88 88 150 80 148 155 251 259 358 104 106 218 191 336 252 111
57 141 67 339 113 199 46 310 82 411 133 223 112 334 265 351 483 6 74 5 77
-20 94 -31 20 -55 10 -82 -32 -32 -49 -127 -142 -195 -192 -85 -64 -171 -106
-267 -132 -68 -19 -95 -21 -223 -16 -80 3 -203 13 -275 22 -156 20 -361 16
-445 -10 -99 -30 -182 -82 -287 -179 -236 -217 -342 -298 -468 -356 -114 -54
-167 -64 -304 -57 -103 5 -221 28 -221 43 0 4 58 70 128 148 408 450 834 961
1214 1456 257 335 588 786 588 802 0 18 -32 48 -51 48 -17 -1 -576 -414 -899
-666 -489 -380 -930 -750 -1358 -1137 -81 -74 -147 -126 -151 -121 -19 20 -43
164 -43 259 -1 215 83 364 400 713 128 140 168 205 197 317 28 105 30 251 6
460 -11 105 -23 215 -27 246 -7 72 10 193 40 281 43 122 98 203 227 330 66 65
119 126 119 136 0 31 -22 42 -79 42 -138 -1 -269 -57 -371 -160 -116 -118
-183 -263 -250 -538 -22 -92 -47 -194 -56 -227 -22 -88 -104 -247 -178 -345
-74 -99 -223 -246 -316 -312 -36 -25 -117 -74 -180 -108 -209 -112 -359 -249
-492 -450 -40 -60 -73 -108 -74 -107 -1 1 -7 92 -13 202 -47 810 -112 1437
-248 2360 -45 307 -61 393 -75 407 -22 22 -29 22 -53 4z m73 -683 c89 -630
138 -1083 181 -1668 23 -312 47 -753 40 -759 -2 -2 -56 1 -119 6 -109 8 -331
4 -394 -9 l-29 -5 7 168 c17 412 69 1056 127 1564 45 400 129 1000 139 1000 3
0 25 -134 48 -297z m-2080 -220 c134 -91 228 -286 301 -621 39 -179 61 -245
117 -352 130 -244 375 -489 609 -607 217 -110 368 -248 508 -463 55 -86 97
-162 97 -177 0 -5 -38 -16 -84 -26 -258 -53 -528 -159 -745 -291 -51 -31 -95
-55 -97 -53 -3 2 3 46 12 98 53 306 -46 525 -421 928 -156 169 -190 252 -188
466 1 66 11 199 22 295 12 96 21 209 21 250 -1 188 -75 375 -216 544 l-64 76
37 -15 c21 -9 62 -32 91 -52z m4128 -9 c-141 -169 -215 -356 -216 -544 0 -41
9 -154 21 -250 11 -96 21 -229 22 -295 2 -214 -32 -297 -188 -466 -375 -403
-474 -622 -421 -928 9 -52 15 -96 12 -98 -2 -2 -50 24 -106 58 -203 122 -470
228 -710 280 -58 13 -107 24 -109 26 -8 6 39 95 96 183 140 216 291 353 508
463 174 87 390 278 513 452 83 117 156 268 182 375 67 282 91 374 119 445 65
169 158 287 272 344 34 17 64 31 66 31 2 0 -26 -34 -61 -76z m-5401 -1188
c586 -440 1222 -968 1760 -1459 l60 -55 -45 -38 c-81 -68 -231 -218 -283 -281
-28 -35 -54 -63 -58 -63 -8 0 -265 285 -465 515 -376 432 -819 984 -1160 1445
-117 158 -122 166 -103 155 8 -5 140 -103 294 -219z m6909 212 c-28 -47 -467
-621 -645 -843 -320 -400 -742 -895 -1033 -1210 l-55 -60 -38 45 c-64 77 -215
229 -280 283 -35 28 -63 54 -63 58 0 8 289 270 525 474 289 251 727 610 1045
856 132 102 542 409 547 409 2 0 1 -6 -3 -12z m-3327 -1323 c357 -47 680 -165
967 -352 808 -527 1199 -1484 990 -2423 -137 -615 -530 -1152 -1081 -1477
-268 -158 -595 -264 -938 -304 -139 -16 -430 -6 -577 20 -507 91 -904 296
-1254 645 -365 366 -577 792 -654 1312 -38 265 -22 578 46 853 208 844 894
1511 1739 1691 241 51 535 64 762 35z m-4764 -244 c67 -45 199 -106 275 -126
111 -28 202 -29 412 -4 242 29 430 31 515 5 101 -30 151 -62 281 -181 274
-251 408 -341 584 -396 62 -20 96 -24 190 -23 66 1 143 8 180 17 36 8 66 14
68 12 2 -1 -9 -20 -23 -41 -138 -202 -271 -524 -326 -786 -12 -60 -27 -108
-33 -108 -15 0 -162 88 -243 146 -85 61 -212 181 -269 255 -24 32 -71 108
-104 170 -34 62 -84 146 -112 186 -114 165 -324 354 -498 450 -103 56 -195 87
-376 128 -275 61 -445 132 -549 227 -58 53 -110 127 -121 173 -7 29 -6 29 47
-20 30 -28 76 -66 102 -84z m9106 61 c-35 -72 -140 -171 -236 -220 -102 -53
-250 -102 -413 -137 -69 -14 -154 -35 -190 -47 -306 -97 -636 -392 -797 -712
-104 -208 -273 -377 -526 -527 -45 -27 -87 -49 -93 -49 -6 0 -21 48 -33 108
-55 260 -184 575 -323 781 -32 48 -32 56 3 42 47 -17 213 -33 282 -26 215 21
377 116 711 419 134 122 181 152 281 182 85 26 273 24 515 -5 218 -26 309 -24
428 9 129 36 290 129 372 214 42 45 50 32 19 -32z m-6995 -1864 c-9 -56 -9
-401 1 -457 l7 -44 -168 7 c-412 17 -1056 69 -1564 127 -394 45 -1000 129
-1000 139 0 3 71 16 157 29 692 101 1379 174 2038 216 329 21 338 21 443 23
l94 2 -8 -42z m5371 12 c531 -36 1116 -96 1615 -165 384 -52 490 -69 490 -75
0 -6 -452 -72 -750 -110 -543 -68 -1310 -134 -1819 -156 l-163 -7 7 44 c10 57
10 401 0 458 l-7 44 168 -7 c93 -4 300 -16 459 -26z m-5335 -702 c43 -247 176
-585 314 -798 25 -39 42 -70 38 -70 -4 0 -42 7 -85 15 -316 60 -535 -37 -954
-427 -109 -101 -172 -139 -275 -163 -89 -21 -256 -19 -465 6 -234 27 -375 23
-488 -15 -113 -39 -200 -87 -299 -166 -47 -38 -86 -65 -86 -59 0 41 84 153
155 206 118 89 246 139 519 202 210 49 295 80 419 154 233 139 427 347 562
602 55 105 70 127 143 218 90 111 240 231 411 328 36 20 69 37 72 38 3 1 12
-32 19 -71z m4797 16 c250 -145 399 -292 518 -512 73 -136 120 -206 209 -311
166 -197 410 -364 616 -420 41 -12 147 -38 235 -60 253 -61 396 -125 496 -224
48 -47 91 -111 104 -155 5 -17 -14 -6 -82 49 -94 76 -229 148 -328 175 -99 27
-248 28 -453 5 -100 -12 -235 -21 -300 -21 -203 0 -291 35 -445 178 -419 390
-638 487 -954 427 -43 -8 -82 -15 -86 -15 -4 0 5 19 21 43 147 219 301 606
337 850 4 26 9 47 11 47 2 0 47 -25 101 -56z m-4263 -1113 c61 -74 203 -214
274 -270 23 -19 42 -38 42 -42 0 -8 -284 -265 -515 -465 -432 -376 -984 -819
-1445 -1160 -158 -117 -166 -122 -155 -103 5 8 103 140 219 294 350 465 763
974 1125 1385 220 250 383 430 391 430 3 0 32 -31 64 -69z m3848 -113 c517
-575 981 -1142 1439 -1758 132 -178 138 -187 118 -175 -48 29 -618 465 -844
646 -400 319 -882 731 -1210 1033 l-60 55 50 43 c87 73 214 200 273 271 31 37
59 67 63 67 4 0 81 -82 171 -182z m-3112 -457 c196 -100 436 -181 633 -217 20
-3 37 -11 37 -17 0 -19 -92 -171 -156 -257 -117 -159 -262 -284 -424 -365
-298 -149 -572 -445 -689 -743 -12 -30 -40 -132 -62 -227 -69 -298 -135 -456
-235 -565 -50 -53 -168 -129 -181 -116 -3 3 14 27 38 53 62 66 103 129 149
225 82 171 93 287 60 578 -38 323 -29 473 34 599 14 27 72 100 129 163 225
247 301 350 367 492 68 146 84 278 55 441 -8 44 -15 86 -15 92 0 7 28 -6 62
-28 34 -22 123 -71 198 -108z m2385 48 c-29 -178 -14 -299 54 -445 68 -145
142 -244 368 -492 111 -122 142 -172 168 -273 24 -88 22 -270 -4 -484 -25
-200 -26 -287 -7 -387 28 -147 104 -298 205 -409 29 -33 51 -62 48 -65 -10
-10 -111 49 -158 93 -115 107 -183 262 -258 588 -44 189 -62 240 -124 360
-123 235 -380 486 -627 610 -211 106 -383 275 -526 517 -30 51 -54 97 -54 103
0 7 37 19 83 29 114 24 269 70 377 111 104 40 317 147 405 203 33 22 61 38 63
37 1 -1 -4 -44 -13 -96z m-1315 -302 c102 0 205 4 229 8 l44 7 -7 -168 c-17
-412 -69 -1056 -127 -1564 -45 -394 -129 -1000 -139 -1000 -9 0 -91 578 -135
959 -63 548 -134 1453 -135 1709 l0 64 43 -8 c23 -4 125 -7 227 -7z"/>
<path d="M4953 7150 c-118 -26 -245 -71 -356 -127 -85 -42 -88 -45 -85 -75 6
-57 26 -57 145 -1 375 178 691 175 956 -10 51 -35 60 -39 82 -29 36 16 33 54
-7 92 -42 40 -213 123 -298 145 -104 27 -323 29 -437 5z"/>
<path d="M6637 7150 c-102 -21 -273 -101 -324 -150 -41 -38 -44 -76 -8 -92 22
-10 30 -7 68 20 163 123 388 174 607 138 122 -20 228 -54 363 -119 119 -56
139 -56 145 1 3 30 0 33 -85 75 -262 132 -532 176 -766 127z"/>
<path d="M4923 6736 c-58 -19 -94 -46 -210 -160 -84 -81 -103 -105 -103 -129
0 -20 6 -30 20 -34 32 -8 24 -21 -30 -48 -43 -22 -50 -29 -50 -55 0 -22 6 -33
24 -41 20 -10 34 -6 86 22 34 18 77 51 95 74 19 22 52 51 74 63 l41 23 0 -51
c0 -112 78 -193 186 -193 67 0 120 28 159 82 24 35 29 52 30 101 0 33 2 60 5
60 14 0 91 -60 123 -96 20 -22 61 -53 92 -68 53 -26 58 -26 81 -11 44 28 30
58 -46 99 -19 11 -57 43 -85 71 -132 136 -379 176 -574 93 -24 -10 -46 -17
-48 -14 -3 2 25 29 62 59 92 76 157 90 305 66 95 -15 152 -46 267 -142 120
-101 131 -107 161 -96 16 6 22 16 22 38 0 24 -14 40 -82 98 -207 173 -251 193
-443 199 -84 3 -133 0 -162 -10z m198 -274 c25 -22 31 -36 31 -67 0 -80 -102
-126 -157 -71 -65 65 -24 164 67 166 17 0 40 -11 59 -28z"/>
<path d="M6785 6736 c-110 -26 -141 -44 -312 -189 -68 -57 -83 -74 -83 -98 0
-37 30 -55 63 -38 12 7 43 31 69 54 159 142 234 180 379 192 111 9 163 -7 244
-74 37 -30 65 -57 62 -59 -2 -3 -24 4 -48 14 -70 30 -147 45 -228 44 -133 -2
-288 -64 -351 -140 -17 -20 -53 -51 -82 -67 -76 -45 -87 -76 -37 -108 23 -14
123 39 166 87 32 36 109 96 123 96 3 0 5 -27 5 -60 1 -49 6 -66 30 -101 39
-54 92 -82 159 -82 108 0 186 81 186 193 l0 51 41 -23 c22 -12 55 -41 74 -63
18 -23 61 -56 95 -74 52 -28 66 -32 86 -22 18 8 24 19 24 41 0 26 -7 33 -50
55 -54 27 -62 40 -30 48 14 4 20 14 20 35 0 24 -19 48 -113 139 -147 142 -177
157 -322 160 -67 1 -134 -3 -170 -11z m204 -261 c56 -29 64 -103 16 -151 -55
-55 -157 -9 -157 71 0 31 6 45 31 67 35 31 68 35 110 13z"/>
<path d="M5852 6567 c-7 -8 -12 -149 -14 -407 l-3 -395 -38 -90 c-46 -109 -64
-212 -48 -271 23 -85 87 -144 129 -118 29 19 26 52 -8 91 -31 35 -32 39 -28
107 4 51 16 96 42 159 28 67 39 110 46 185 13 129 13 693 0 726 -7 20 -17 26
-39 26 -15 0 -33 -6 -39 -13z"/>
<path d="M5520 5592 c-53 -56 -74 -106 -78 -187 -3 -59 0 -77 20 -115 34 -62
87 -88 202 -96 84 -7 91 -9 145 -50 70 -53 98 -64 159 -64 51 0 95 19 165 73
39 30 54 35 123 40 96 7 140 21 178 56 79 72 75 217 -10 328 -36 48 -60 58
-90 38 -32 -21 -30 -38 11 -92 42 -55 60 -109 51 -156 -11 -56 -34 -69 -139
-77 -101 -8 -109 -11 -206 -77 -79 -54 -107 -54 -184 5 -77 58 -92 64 -195 72
-87 6 -97 9 -119 34 -40 47 -24 137 40 212 33 39 34 58 5 78 -31 22 -37 21
-78 -22z"/>
<path d="M5770 4926 c-108 -29 -163 -81 -128 -123 12 -15 2 -16 -109 -10 -102
5 -125 3 -138 -9 -19 -19 -19 -35 -2 -58 11 -15 31 -20 90 -24 71 -4 77 -6 77
-27 0 -12 8 -29 18 -38 32 -29 167 -96 247 -122 68 -23 92 -27 160 -23 94 6
201 44 310 110 56 35 71 49 73 71 3 25 6 27 51 27 108 0 149 27 117 76 -16 24
-17 24 -139 17 -111 -6 -121 -5 -109 10 27 33 11 60 -57 94 -36 17 -78 33 -95
36 -32 5 -86 -15 -141 -52 l-30 -20 -55 34 c-70 43 -85 46 -140 31z m81 -105
l23 -18 -54 4 c-73 6 -79 9 -50 21 37 16 55 14 81 -7z m306 7 c27 -11 25 -12
-37 -19 -36 -4 -67 -5 -68 -4 -5 5 51 34 65 35 6 0 24 -5 40 -12z m-270 -135
l76 -26 84 28 c66 22 92 26 129 20 90 -13 94 -18 33 -52 -76 -43 -192 -83
-243 -83 -65 0 -218 56 -281 103 -18 14 -17 15 25 25 71 16 95 14 177 -15z"/>
</g>
</svg>
