<?xml version="1.0" standalone="no"?>
<!DOCTYPE svg PUBLIC "-//W3C//DTD SVG 20010904//EN"
 "http://www.w3.org/TR/2001/REC-SVG-20010904/DTD/svg10.dtd">
<svg version="1.0" xmlns="http://www.w3.org/2000/svg"
 width="1200.000000pt" height="1200.000000pt" viewBox="0 0 1200.000000 1200.000000"
 preserveAspectRatio="xMidYMid meet">

<g transform="translate(0.000000,1200.000000) scale(0.100000,-0.100000)"
fill="#000000" stroke="none">
<path d="M5970 11520 c-20 -20 -20 -33 -20 -1411 0 -939 3 -1397 10 -1410 7
-12 21 -19 40 -19 19 0 33 7 40 19 7 13 10 471 10 1410 0 1378 0 1391 -20
1411 -11 11 -24 20 -30 20 -5 0 -19 -9 -30 -20z"/>
<path d="M4228 10379 c-10 -5 -18 -21 -18 -34 0 -14 83 -231 184 -482 102
-252 266 -660 366 -908 99 -247 187 -456 195 -464 19 -20 63 -6 70 22 4 16
-107 304 -363 940 -203 505 -371 919 -373 921 -12 11 -46 14 -61 5z"/>
<path d="M7802 10337 c-7 -7 -185 -420 -397 -918 -266 -624 -384 -911 -380
-926 8 -32 51 -41 74 -17 22 24 781 1806 781 1833 0 34 -57 54 -78 28z"/>
<path d="M5332 9728 c-7 -7 -12 -20 -12 -30 0 -20 168 -1003 176 -1030 10 -32
75 -35 87 -3 8 20 -170 1044 -184 1061 -14 17 -51 18 -67 2z"/>
<path d="M6736 9707 c-15 -11 -41 -122 -122 -513 -58 -274 -103 -512 -102
-528 4 -38 28 -54 60 -39 22 10 31 43 132 534 l109 523 -23 18 c-27 22 -31 22
-54 5z"/>
<path d="M2657 9343 c-32 -31 -13 -52 695 -760 474 -474 710 -703 723 -703 27
0 45 18 45 45 0 13 -229 249 -703 723 -708 708 -729 727 -760 695z"/>
<path d="M8583 8648 c-473 -473 -703 -710 -703 -724 0 -26 18 -44 45 -44 13 0
249 229 723 703 644 644 703 706 700 733 -2 24 -8 29 -33 32 -28 2 -87 -54
-732 -700z"/>
<path d="M3909 9156 c-11 -23 9 -57 277 -466 158 -243 296 -446 306 -451 23
-12 54 3 63 31 5 16 -62 125 -282 463 -274 418 -291 442 -321 445 -26 3 -34
-1 -43 -22z"/>
<path d="M8138 9098 c-33 -26 -608 -852 -608 -873 0 -13 7 -28 14 -35 39 -31
53 -14 363 424 167 235 303 436 303 446 0 21 -25 50 -44 50 -7 0 -19 -6 -28
-12z"/>
<path d="M2906 8194 c-19 -19 -20 -35 -3 -56 25 -33 851 -608 873 -608 12 0
27 7 34 14 31 39 14 53 -424 363 -235 167 -436 303 -446 303 -10 0 -26 -7 -34
-16z"/>
<path d="M5755 8198 c-385 -43 -762 -192 -1077 -425 -132 -98 -353 -319 -451
-451 -286 -386 -437 -844 -437 -1322 0 -478 151 -936 437 -1322 98 -132 319
-353 451 -451 567 -420 1294 -546 1967 -342 711 216 1273 788 1480 1505 63
217 79 346 79 610 0 264 -16 393 -79 610 -250 868 -993 1489 -1900 1590 -107
12 -358 11 -470 -2z m533 -104 c205 -27 464 -105 633 -189 87 -44 180 -97 177
-101 -2 -2 -38 8 -80 21 -338 107 -749 107 -1105 -1 -868 -263 -1434 -1113
-1342 -2015 69 -680 506 -1282 1127 -1554 413 -181 907 -211 1320 -80 42 13
78 23 80 21 1 -2 -25 -19 -60 -39 -239 -132 -486 -215 -755 -253 -152 -21
-421 -21 -567 0 -473 69 -877 270 -1210 602 -403 403 -619 925 -619 1494 0
569 216 1091 619 1494 472 472 1115 688 1782 600z m538 -318 c207 -44 406
-121 581 -227 119 -72 225 -186 357 -383 509 -761 458 -1792 -122 -2499 -98
-119 -144 -161 -235 -216 -289 -175 -604 -261 -947 -261 -774 1 -1464 500
-1709 1235 -74 223 -85 297 -85 575 0 217 2 257 22 350 166 768 756 1328 1525
1445 149 23 460 13 613 -19z"/>
<path d="M8690 7815 c-239 -157 -441 -293 -448 -304 -10 -15 -11 -25 -3 -40
26 -48 34 -44 494 256 399 261 442 292 445 318 4 28 -18 55 -42 55 -6 0 -207
-129 -446 -285z"/>
<path d="M1658 7854 c-8 -18 -9 -30 -1 -42 15 -25 1823 -794 1850 -787 32 7
41 51 17 74 -24 22 -1806 781 -1834 781 -12 0 -25 -10 -32 -26z"/>
<path d="M10167 7729 c-81 -33 -489 -198 -905 -365 -416 -167 -763 -311 -771
-318 -20 -20 -6 -64 22 -71 16 -4 283 99 872 335 1088 438 992 397 998 422 9
32 -10 58 -41 58 -15 -1 -94 -28 -175 -61z"/>
<path d="M2295 6786 c-19 -28 -8 -61 22 -70 48 -14 993 -206 1015 -206 14 0
31 7 38 15 16 19 5 61 -17 70 -19 7 -1017 215 -1033 215 -5 0 -17 -11 -25 -24z"/>
<path d="M9175 6594 c-264 -46 -490 -86 -502 -89 -36 -9 -43 -75 -8 -88 20 -8
1043 169 1060 183 18 15 19 52 3 68 -7 7 -26 12 -42 11 -17 -1 -247 -39 -511
-85z"/>
<path d="M480 6030 c-11 -11 -20 -24 -20 -30 0 -5 9 -19 20 -30 20 -20 33 -20
1411 -20 939 0 1397 3 1410 10 26 14 26 66 0 80 -13 7 -471 10 -1410 10 -1378
0 -1391 0 -1411 -20z"/>
<path d="M8698 6039 c-25 -14 -24 -65 1 -79 13 -7 471 -10 1410 -10 1378 0
1391 0 1411 20 11 11 20 25 20 30 0 6 -9 19 -20 30 -20 20 -33 20 -1412 20
-928 -1 -1399 -4 -1410 -11z"/>
<path d="M2797 5500 c-280 -49 -515 -94 -523 -101 -19 -15 -14 -59 7 -72 22
-14 1045 160 1065 181 8 7 14 22 14 32 0 21 -26 50 -43 49 -7 -1 -241 -41
-520 -89z"/>
<path d="M8630 5475 c-20 -25 -4 -62 32 -74 18 -5 255 -56 527 -112 l495 -102
18 23 c22 27 22 31 5 54 -11 14 -122 41 -513 122 -274 57 -511 104 -525 104
-15 0 -32 -7 -39 -15z"/>
<path d="M2600 4684 c-1051 -423 -978 -392 -985 -415 -9 -28 12 -59 41 -59 14
0 152 51 307 114 155 63 559 225 897 361 338 136 625 253 638 261 12 8 22 23
22 34 0 23 -26 50 -48 49 -9 0 -402 -155 -872 -345z"/>
<path d="M8477 4965 c-22 -21 -22 -48 1 -67 30 -25 1813 -779 1835 -776 29 4
47 53 26 73 -14 14 -1786 774 -1825 782 -11 3 -28 -3 -37 -12z"/>
<path d="M3265 4272 c-416 -273 -440 -290 -443 -320 -3 -26 1 -34 22 -43 23
-11 56 9 458 271 404 263 468 308 468 331 0 14 -38 49 -52 49 -7 0 -211 -130
-453 -288z"/>
<path d="M8190 4456 c-31 -39 -14 -53 424 -363 235 -167 436 -303 446 -303 21
0 50 25 50 44 0 7 -6 19 -12 28 -26 33 -852 608 -874 608 -12 0 -27 -7 -34
-14z"/>
<path d="M3352 3417 c-644 -644 -703 -706 -700 -733 2 -24 8 -30 32 -32 27 -3
89 56 733 700 474 474 703 710 703 723 0 12 -5 26 -12 33 -7 7 -21 12 -33 12
-13 0 -249 -229 -723 -703z"/>
<path d="M7892 4108 c-7 -7 -12 -21 -12 -33 0 -13 229 -249 703 -723 644 -644
706 -703 733 -700 24 2 30 8 32 32 3 27 -56 89 -700 733 -474 474 -710 703
-723 703 -12 0 -26 -5 -33 -12z"/>
<path d="M4257 3618 c-397 -560 -467 -662 -467 -678 0 -21 25 -50 44 -50 7 0
19 6 28 13 32 24 608 851 608 872 0 27 -18 45 -47 45 -18 0 -51 -41 -166 -202z"/>
<path d="M7460 3750 c-11 -11 -20 -26 -20 -32 0 -7 130 -211 288 -453 273
-416 290 -440 320 -443 26 -3 34 1 43 22 11 22 -10 57 -271 458 -155 238 -291
441 -302 451 -26 22 -34 21 -58 -3z"/>
<path d="M4898 3523 c-25 -31 -779 -1814 -776 -1836 4 -29 53 -47 73 -26 14
14 774 1786 782 1825 5 24 -20 54 -46 54 -10 0 -25 -8 -33 -17z"/>
<path d="M6986 3504 c-9 -8 -16 -21 -16 -29 0 -9 660 -1659 737 -1842 15 -37
83 -19 83 23 0 14 -51 152 -114 307 -63 155 -225 559 -361 897 -136 338 -253
625 -261 638 -17 26 -46 29 -68 6z"/>
<path d="M5418 3368 c-11 -9 -48 -166 -123 -532 l-108 -520 23 -18 c60 -48 61
-43 176 507 57 275 104 511 104 525 0 45 -38 64 -72 38z"/>
<path d="M6425 3344 c-10 -11 -14 -26 -11 -43 3 -14 44 -248 90 -519 47 -272
90 -500 97 -508 15 -19 59 -14 72 7 14 22 -160 1045 -181 1065 -18 19 -47 18
-67 -2z"/>
<path d="M5960 3301 c-7 -13 -10 -471 -10 -1410 0 -1378 0 -1391 20 -1411 25
-25 35 -25 60 0 20 20 20 33 20 1411 0 939 -3 1397 -10 1410 -7 12 -21 19 -40
19 -19 0 -33 -7 -40 -19z"/>
</g>
</svg>
