<?xml version="1.0" standalone="no"?>
<!DOCTYPE svg PUBLIC "-//W3C//DTD SVG 20010904//EN"
 "http://www.w3.org/TR/2001/REC-SVG-20010904/DTD/svg10.dtd">
<svg version="1.0" xmlns="http://www.w3.org/2000/svg"
 width="354.000000pt" height="366.000000pt" viewBox="0 0 354.000000 366.000000"
 preserveAspectRatio="xMidYMid meet">

<g transform="translate(0.000000,366.000000) scale(0.100000,-0.100000)"
fill="#000000" stroke="none">
<path d="M1580 3306 c-321 -58 -591 -197 -810 -417 -777 -780 -461 -2104 583
-2443 164 -54 270 -70 457 -70 194 0 299 16 471 74 194 64 352 154 503 286
117 102 109 107 -83 50 -203 -60 -332 -80 -516 -80 -171 0 -243 10 -370 51
-195 63 -351 179 -450 333 -55 85 -75 139 -75 201 0 54 -16 102 -52 152 -15
21 -23 48 -24 77 -2 55 -17 125 -32 143 -17 20 -3 57 22 57 11 0 38 5 59 11
54 15 64 42 42 110 -25 75 -80 183 -125 243 -21 28 -42 65 -47 81 -9 26 -6 35
21 70 28 35 31 45 27 95 -3 30 -5 98 -5 151 0 91 1 100 37 172 43 86 101 144
233 233 401 268 942 273 1343 14 90 -58 97 -38 14 41 -175 164 -407 286 -663
346 -88 21 -136 25 -295 28 -131 3 -213 0 -265 -9z m482 -31 c197 -34 385
-109 552 -220 48 -32 85 -59 83 -62 -2 -2 -28 8 -58 21 -287 126 -641 138
-939 31 -163 -59 -359 -181 -442 -275 -91 -102 -128 -237 -107 -390 l12 -91
-32 -39 c-17 -21 -31 -47 -31 -57 1 -27 36 -101 66 -136 43 -51 124 -229 124
-272 0 -17 -45 -35 -85 -35 -40 0 -55 -20 -55 -74 0 -25 -5 -36 -15 -36 -25 0
-65 -23 -65 -38 0 -10 6 -12 18 -7 29 12 82 23 82 17 0 -3 -7 -14 -17 -24 -19
-22 -63 -23 -126 -4 -25 7 -48 11 -51 8 -12 -11 -5 -20 20 -26 21 -6 24 -10
14 -21 -10 -12 -3 -20 36 -45 47 -30 99 -40 92 -19 -2 6 -21 17 -42 24 -22 8
-46 21 -55 30 -15 15 -12 16 34 13 28 -1 64 1 81 5 25 6 33 5 38 -9 4 -10 2
-22 -4 -28 -16 -16 -12 -35 20 -82 40 -57 61 -117 54 -154 -20 -97 140 -324
309 -439 262 -178 622 -214 1055 -105 123 31 143 24 80 -28 -174 -143 -436
-257 -673 -294 -133 -20 -396 -15 -515 11 -273 59 -505 184 -707 379 -209 201
-333 411 -403 680 -154 600 87 1226 605 1571 309 206 681 284 1047 220z"/>
<path d="M817 2316 c-67 -22 -107 -49 -94 -62 3 -4 26 2 49 14 94 44 185 54
238 27 42 -21 49 0 8 25 -44 27 -115 26 -201 -4z"/>
<path d="M1000 2212 c0 -31 -30 -49 -124 -76 -96 -28 -105 -32 -90 -45 12 -12
101 -40 154 -49 35 -6 45 -12 50 -30 11 -50 25 -13 26 73 1 50 5 102 9 118 6
21 4 27 -9 27 -9 0 -16 -8 -16 -18z m-5 -112 c0 -27 -22 -39 -31 -16 -8 22 3
49 19 43 6 -2 12 -14 12 -27z m-57 -5 c0 -29 -17 -31 -63 -11 l-30 14 25 10
c45 19 68 15 68 -13z"/>
<path d="M906 2198 c-80 -17 -206 -59 -206 -69 0 -14 23 -11 107 15 43 14 95
28 116 31 34 7 47 18 30 28 -5 2 -26 0 -47 -5z"/>
<path d="M1030 1782 c0 -46 24 -72 64 -72 31 0 31 23 0 29 -33 6 -45 22 -39
53 5 21 3 28 -9 28 -12 0 -16 -10 -16 -38z"/>
<path d="M906 1642 c-21 -41 -21 -92 0 -92 11 0 14 5 10 16 -3 8 1 31 9 51 20
47 3 68 -19 25z"/>
</g>
</svg>
