<svg width="31" height="31" viewBox="0 0 31 31" fill="none" xmlns="http://www.w3.org/2000/svg">
<path d="M15.8944 0.757111C7.62341 0.757111 0.894409 7.48611 0.894409 15.7571C0.894409 19.3796 2.18541 22.7061 4.33141 25.3011C4.33691 25.3086 4.33741 25.3181 4.34341 25.3251C5.89291 27.1936 7.83891 28.6261 10.0074 29.5516C10.0324 29.5621 10.0569 29.5736 10.0819 29.5841C10.2574 29.6581 10.4349 29.7266 10.6129 29.7936C10.6829 29.8201 10.7529 29.8471 10.8239 29.8726C10.9774 29.9276 11.1319 29.9796 11.2874 30.0296C11.3869 30.0616 11.4864 30.0931 11.5869 30.1231C11.7244 30.1641 11.8624 30.2036 12.0014 30.2411C12.1234 30.2741 12.2464 30.3046 12.3694 30.3341C12.4939 30.3641 12.6189 30.3941 12.7444 30.4206C12.8844 30.4506 13.0259 30.4771 13.1679 30.5031C13.2819 30.5241 13.3954 30.5461 13.5104 30.5646C13.6679 30.5901 13.8264 30.6101 13.9854 30.6306C14.0879 30.6436 14.1899 30.6586 14.2929 30.6696C14.4729 30.6886 14.6544 30.7021 14.8364 30.7146C14.9209 30.7206 15.0049 30.7296 15.0899 30.7341C15.3554 30.7491 15.6239 30.7571 15.8944 30.7571C16.1649 30.7571 16.4334 30.7491 16.6999 30.7351C16.7849 30.7306 16.8689 30.7216 16.9534 30.7156C17.1354 30.7026 17.3169 30.6896 17.4969 30.6706C17.5999 30.6596 17.7019 30.6446 17.8044 30.6316C17.9634 30.6111 18.1219 30.5911 18.2794 30.5656C18.3939 30.5471 18.5079 30.5251 18.6219 30.5041C18.7634 30.4781 18.9049 30.4516 19.0454 30.4216C19.1709 30.3946 19.2954 30.3651 19.4204 30.3351C19.5434 30.3051 19.6664 30.2746 19.7884 30.2421C19.9274 30.2051 20.0654 30.1651 20.2029 30.1241C20.3034 30.0941 20.4029 30.0626 20.5024 30.0306C20.6579 29.9806 20.8124 29.9286 20.9659 29.8736C21.0364 29.8481 21.1064 29.8211 21.1769 29.7946C21.3554 29.7276 21.5324 29.6586 21.7079 29.5851C21.7329 29.5746 21.7574 29.5631 21.7824 29.5526C23.9504 28.6271 25.8969 27.1946 27.4464 25.3261C27.4524 25.3191 27.4529 25.3091 27.4584 25.3021C29.6034 22.7061 30.8944 19.3796 30.8944 15.7571C30.8944 7.48611 24.1654 0.757111 15.8944 0.757111ZM21.9729 28.3671C21.9654 28.3706 21.9584 28.3746 21.9509 28.3781C21.7724 28.4641 21.5909 28.5451 21.4079 28.6241C21.3664 28.6416 21.3254 28.6596 21.2839 28.6771C21.1239 28.7441 20.9619 28.8076 20.7989 28.8686C20.7309 28.8941 20.6629 28.9191 20.5944 28.9431C20.4499 28.9946 20.3049 29.0441 20.1584 29.0911C20.0674 29.1201 19.9759 29.1476 19.8844 29.1746C19.7544 29.2136 19.6239 29.2511 19.4919 29.2861C19.3809 29.3156 19.2689 29.3426 19.1569 29.3691C19.0394 29.3971 18.9224 29.4256 18.8039 29.4506C18.6744 29.4781 18.5439 29.5016 18.4139 29.5251C18.3084 29.5446 18.2034 29.5651 18.0969 29.5821C17.9504 29.6051 17.8024 29.6236 17.6549 29.6421C17.5614 29.6541 17.4684 29.6681 17.3739 29.6781C17.2054 29.6961 17.0354 29.7076 16.8659 29.7196C16.7904 29.7246 16.7154 29.7331 16.6389 29.7371C16.3914 29.7501 16.1434 29.7571 15.8944 29.7571C15.6454 29.7571 15.3974 29.7501 15.1504 29.7371C15.0744 29.7331 14.9994 29.7251 14.9234 29.7196C14.7534 29.7081 14.5839 29.6961 14.4154 29.6781C14.3209 29.6681 14.2279 29.6541 14.1344 29.6421C13.9869 29.6236 13.8389 29.6051 13.6924 29.5821C13.5859 29.5651 13.4809 29.5446 13.3754 29.5251C13.2449 29.5016 13.1144 29.4776 12.9854 29.4506C12.8669 29.4256 12.7494 29.3971 12.6324 29.3691C12.5204 29.3421 12.4084 29.3156 12.2974 29.2861C12.1659 29.2511 12.0349 29.2131 11.9049 29.1746C11.8134 29.1476 11.7219 29.1201 11.6309 29.0911C11.4844 29.0441 11.3389 28.9946 11.1949 28.9431C11.1264 28.9186 11.0584 28.8936 10.9904 28.8686C10.8274 28.8076 10.6654 28.7441 10.5054 28.6771C10.4639 28.6601 10.4234 28.6421 10.3819 28.6246C10.1989 28.5461 10.0174 28.4646 9.83841 28.3786C9.83091 28.3751 9.82391 28.3716 9.81641 28.3676C8.07191 27.5236 6.53091 26.3256 5.28041 24.8706C6.24691 21.3116 8.98291 18.4426 12.5029 17.3011C12.5724 17.3436 12.6449 17.3816 12.7164 17.4216C12.7584 17.4451 12.7999 17.4701 12.8424 17.4926C12.9914 17.5716 13.1424 17.6456 13.2969 17.7121C13.4154 17.7641 13.5379 17.8081 13.6599 17.8531C13.6839 17.8616 13.7079 17.8711 13.7319 17.8796C14.4099 18.1196 15.1354 18.2571 15.8944 18.2571C16.6534 18.2571 17.3789 18.1196 18.0564 17.8796C18.0804 17.8711 18.1044 17.8616 18.1284 17.8531C18.2504 17.8081 18.3729 17.7641 18.4914 17.7121C18.6459 17.6456 18.7969 17.5716 18.9459 17.4926C18.9884 17.4696 19.0299 17.4451 19.0719 17.4216C19.1434 17.3816 19.2164 17.3436 19.2864 17.3006C22.8064 18.4426 25.5419 21.3116 26.5089 24.8701C25.2584 26.3246 23.7174 27.5226 21.9729 28.3671ZM10.3944 11.7571C10.3944 8.72461 12.8619 6.25711 15.8944 6.25711C18.9269 6.25711 21.3944 8.72461 21.3944 11.7571C21.3944 13.6861 20.3939 15.3836 18.8864 16.3656C18.6894 16.4936 18.4844 16.6081 18.2739 16.7081C18.2489 16.7201 18.2244 16.7326 18.1994 16.7441C16.7514 17.4026 15.0374 17.4026 13.5894 16.7441C13.5644 16.7326 13.5394 16.7201 13.5149 16.7081C13.3039 16.6081 13.0994 16.4936 12.9024 16.3656C11.3949 15.3836 10.3944 13.6861 10.3944 11.7571ZM27.2589 23.9186C26.1254 20.5716 23.5394 17.8666 20.2354 16.5816C21.5569 15.3911 22.3944 13.6721 22.3944 11.7571C22.3944 8.17311 19.4784 5.25711 15.8944 5.25711C12.3104 5.25711 9.39441 8.17311 9.39441 11.7571C9.39441 13.6721 10.2319 15.3911 11.5539 16.5816C8.24991 17.8671 5.66391 20.5716 4.53041 23.9186C2.87391 21.6191 1.89441 18.8011 1.89441 15.7571C1.89441 8.03761 8.17491 1.75711 15.8944 1.75711C23.6139 1.75711 29.8944 8.03761 29.8944 15.7571C29.8944 18.8011 28.9149 21.6191 27.2589 23.9186Z" fill="white"/>
</svg>
