<svg width="28" height="28" viewBox="0 0 28 28" fill="none" xmlns="http://www.w3.org/2000/svg">
<path d="M22.2988 20.5533C21.8471 19.4834 21.1917 18.5117 20.369 17.6921C19.5488 16.8702 18.5772 16.2148 17.5078 15.7623C17.4982 15.7575 17.4886 15.7551 17.4791 15.7503C18.9707 14.6729 19.9404 12.9179 19.9404 10.9378C19.9404 7.65766 17.2827 5 14.0026 5C10.7224 5 8.06474 7.65766 8.06474 10.9378C8.06474 12.9179 9.03443 14.6729 10.5261 15.7527C10.5165 15.7575 10.5069 15.7599 10.4973 15.7647C9.4247 16.2172 8.4622 16.8661 7.63617 17.6945C6.81423 18.5147 6.1589 19.4863 5.70637 20.5557C5.26181 21.6026 5.02204 22.725 5.00006 23.8622C4.99942 23.8877 5.0039 23.9132 5.01324 23.9369C5.02258 23.9607 5.03659 23.9824 5.05444 24.0007C5.07229 24.019 5.09362 24.0336 5.11718 24.0435C5.14074 24.0534 5.16604 24.0585 5.1916 24.0585H6.62817C6.73352 24.0585 6.81732 23.9747 6.81972 23.8717C6.8676 22.0234 7.60983 20.2923 8.9219 18.9802C10.2795 17.6227 12.0824 16.8757 14.0026 16.8757C15.9228 16.8757 17.7257 17.6227 19.0832 18.9802C20.3953 20.2923 21.1375 22.0234 21.1854 23.8717C21.1878 23.9771 21.2716 24.0585 21.377 24.0585H22.8135C22.8391 24.0585 22.8644 24.0534 22.888 24.0435C22.9115 24.0336 22.9328 24.019 22.9507 24.0007C22.9685 23.9824 22.9826 23.9607 22.9919 23.9369C23.0012 23.9132 23.0057 23.8877 23.0051 23.8622C22.9811 22.7177 22.7441 21.6044 22.2988 20.5533ZM14.0026 15.056C12.9036 15.056 11.8693 14.6274 11.0911 13.8493C10.313 13.0711 9.8844 12.0368 9.8844 10.9378C9.8844 9.83885 10.313 8.80452 11.0911 8.02638C11.8693 7.24823 12.9036 6.81966 14.0026 6.81966C15.1015 6.81966 16.1359 7.24823 16.914 8.02638C17.6922 8.80452 18.1207 9.83885 18.1207 10.9378C18.1207 12.0368 17.6922 13.0711 16.914 13.8493C16.1359 14.6274 15.1015 15.056 14.0026 15.056Z" fill="black"/>
<path fill-rule="evenodd" clip-rule="evenodd" d="M22.1146 20.6313L22.1145 20.6311C21.6729 19.5851 21.0321 18.6351 20.2278 17.8338L20.2274 17.8334C19.4254 17.0297 18.4754 16.389 17.4299 15.9465L17.4206 15.9426L17.411 15.9388C17.4053 15.9366 17.3979 15.9334 17.3896 15.9292L17.0943 15.7816L17.362 15.5882C18.8037 14.5468 19.7404 12.8511 19.7404 10.9378C19.7404 7.76811 17.1723 5.2 14.0026 5.2C10.8329 5.2 8.26474 7.76811 8.26474 10.9378C8.26474 12.851 9.20142 14.5469 10.6433 15.5907L10.9105 15.7841L10.6155 15.9316C10.6072 15.9358 10.5998 15.9389 10.5942 15.9412L10.5822 15.9459L10.5752 15.9494L10.5751 15.949C9.5264 16.3914 8.58557 17.0256 7.77779 17.8357L7.77744 17.8361C6.97378 18.638 6.33303 19.588 5.89056 20.6336L5.89046 20.6338C5.45687 21.6549 5.22257 22.7495 5.20017 23.8585H6.62C6.67116 21.9619 7.43408 20.1852 8.78048 18.8388C10.1755 17.4437 12.0293 16.6757 14.0026 16.6757C15.9758 16.6757 17.8296 17.4437 19.2247 18.8388C20.5711 20.1852 21.334 21.9619 21.3851 23.8585H22.805C22.7806 22.742 22.5489 21.6564 22.1146 20.6313ZM22.8136 23.8585H22.8135H22.8136ZM22.8135 24.0585C22.8391 24.0585 22.8644 24.0534 22.888 24.0435C22.9115 24.0336 22.9328 24.019 22.9507 24.0007C22.9685 23.9824 22.9826 23.9607 22.9919 23.9369C23.0012 23.9132 23.0057 23.8877 23.0051 23.8622C22.9811 22.7177 22.7441 21.6044 22.2988 20.5533C21.8471 19.4834 21.1917 18.5117 20.369 17.6921C19.5959 16.9174 18.6884 16.2908 17.6913 15.8424C17.6304 15.815 17.5693 15.7883 17.5078 15.7623C17.503 15.7599 17.4982 15.7581 17.4934 15.7563C17.4886 15.7545 17.4839 15.7527 17.4791 15.7503C17.4954 15.7385 17.5117 15.7266 17.528 15.7146C17.5299 15.7132 17.5319 15.7118 17.5338 15.7103C17.5775 15.678 17.6208 15.645 17.6636 15.6115C19.0502 14.5256 19.9404 12.835 19.9404 10.9378C19.9404 7.65766 17.2827 5 14.0026 5C10.7224 5 8.06474 7.65766 8.06474 10.9378C8.06474 12.8351 8.95501 14.5257 10.3417 15.6137C10.3844 15.6473 10.4276 15.6802 10.4713 15.7126C10.4733 15.7141 10.4752 15.7155 10.4772 15.717C10.4934 15.729 10.5097 15.7409 10.5261 15.7527C10.5213 15.7551 10.5165 15.7569 10.5117 15.7587C10.5069 15.7605 10.5021 15.7623 10.4973 15.7647C10.4358 15.7907 10.3746 15.8173 10.3138 15.8445C9.31468 16.2923 8.41479 16.9136 7.63617 17.6945C6.81423 18.5147 6.1589 19.4863 5.70637 20.5557C5.26181 21.6026 5.02204 22.725 5.00006 23.8622C4.99942 23.8877 5.0039 23.9132 5.01324 23.9369C5.02258 23.9607 5.03659 23.9824 5.05444 24.0007C5.07229 24.019 5.09362 24.0336 5.11718 24.0435C5.14074 24.0534 5.16604 24.0585 5.1916 24.0585H6.62817C6.73352 24.0585 6.81732 23.9747 6.81972 23.8717C6.8676 22.0234 7.60983 20.2923 8.9219 18.9802C10.2795 17.6227 12.0824 16.8757 14.0026 16.8757C15.9228 16.8757 17.7257 17.6227 19.0832 18.9802C20.3953 20.2923 21.1375 22.0234 21.1854 23.8717C21.1878 23.9771 21.2716 24.0585 21.377 24.0585H22.8135ZM14.0026 15.256C12.8505 15.256 11.7653 14.8063 10.9497 13.9907C10.1341 13.1751 9.6844 12.0899 9.6844 10.9378C9.6844 9.78575 10.1341 8.70056 10.9497 7.88495C11.7653 7.06934 12.8505 6.61966 14.0026 6.61966C15.1546 6.61966 16.2398 7.06934 17.0554 7.88495C17.871 8.70056 18.3207 9.78575 18.3207 10.9378C18.3207 12.0899 17.871 13.1751 17.0554 13.9907C16.2398 14.8063 15.1546 15.256 14.0026 15.256ZM11.0911 13.8493C11.8693 14.6274 12.9036 15.056 14.0026 15.056C15.1015 15.056 16.1359 14.6274 16.914 13.8493C17.6922 13.0711 18.1207 12.0368 18.1207 10.9378C18.1207 9.83885 17.6922 8.80452 16.914 8.02638C16.1359 7.24823 15.1015 6.81966 14.0026 6.81966C12.9036 6.81966 11.8693 7.24823 11.0911 8.02638C10.313 8.80452 9.8844 9.83885 9.8844 10.9378C9.8844 12.0368 10.313 13.0711 11.0911 13.8493Z" fill="white"/>
</svg>
