<svg width="28" height="28" viewBox="0 0 28 28" fill="none" xmlns="http://www.w3.org/2000/svg">
<path d="M13 21C14.775 20.9996 16.4988 20.4054 17.897 19.312L22.293 23.708L23.707 22.294L19.311 17.898C20.405 16.4997 20.9996 14.7754 21 13C21 8.589 17.411 5 13 5C8.589 5 5 8.589 5 13C5 17.411 8.589 21 13 21ZM13 7C16.309 7 19 9.691 19 13C19 16.309 16.309 19 13 19C9.691 19 7 16.309 7 13C7 9.691 9.691 7 13 7Z" fill="black"/>
<path fill-rule="evenodd" clip-rule="evenodd" d="M17.9214 18.9121L22.293 23.2837L23.2827 22.294L18.9111 17.9223L19.0747 17.7131C20.1274 16.3676 20.6996 14.7084 20.7 12.9999C20.7 8.75461 17.2453 5.3 13 5.3C8.75469 5.3 5.3 8.75469 5.3 13C5.3 17.2453 8.75465 20.7 12.9999 20.7M19.311 17.898C20.405 16.4997 20.9996 14.7754 21 13C21 8.589 17.411 5 13 5C8.589 5 5 8.589 5 13C5 17.411 8.589 21 13 21C14.775 20.9996 16.4988 20.4054 17.897 19.312L22.293 23.708L23.707 22.294L19.311 17.898ZM17.9214 18.9121L17.7122 19.0757L17.9214 18.9121ZM17.7122 19.0757C16.3668 20.1278 14.7079 20.6996 12.9999 20.7L17.7122 19.0757ZM13 6.7C16.4747 6.7 19.3 9.52531 19.3 13C19.3 16.4747 16.4747 19.3 13 19.3C9.52531 19.3 6.7 16.4747 6.7 13C6.7 9.52531 9.52531 6.7 13 6.7ZM19 13C19 9.691 16.309 7 13 7C9.691 7 7 9.691 7 13C7 16.309 9.691 19 13 19C16.309 19 19 16.309 19 13Z" fill="white"/>
</svg>
