<svg width="32" height="32" viewBox="0 0 32 32" fill="none" xmlns="http://www.w3.org/2000/svg">
<mask id="mask0_6117_45065" style="mask-type:alpha" maskUnits="userSpaceOnUse" x="5" y="5" width="22" height="22">
<path d="M16.0048 5C16.0034 5 16.0021 5 16 5C9.92516 5 5 9.92447 5 16C5 22.0755 9.92447 27 16 27C22.0735 27 26.9973 22.0776 27 16.0048C26.9959 9.93203 22.0769 5.00962 16.0055 5L16.0048 5Z" fill="white"/>
</mask>
<g mask="url(#mask0_6117_45065)">
<path fill-rule="evenodd" clip-rule="evenodd" d="M5 5H27V26.9973H5V5Z" fill="#41A674" fill-opacity="0.3"/>
</g>
<path fill-rule="evenodd" clip-rule="evenodd" d="M20.2057 12.0748L14.7039 17.7302L11.8621 14.8033C11.6748 14.5799 11.3993 14.4393 11.0909 14.4393C10.5307 14.4393 10.0762 14.9056 10.0762 15.4805C10.0762 15.7961 10.2132 16.0796 10.4294 16.2702L13.9937 19.9267C14.168 20.1134 14.4131 20.229 14.6849 20.229C14.6918 20.229 14.6986 20.229 14.7055 20.229C14.7085 20.229 14.7123 20.229 14.7169 20.229C14.9902 20.229 15.2376 20.1134 15.415 19.9267L21.627 13.5417C21.8097 13.3535 21.9223 13.0941 21.9223 12.8075C21.9223 12.5208 21.8097 12.2615 21.627 12.0732C21.4458 11.8849 21.1945 11.7686 20.9167 11.7686C20.6388 11.7686 20.3876 11.8849 20.2064 12.0732L20.2057 12.0748Z" fill="#F0F1F2"/>
<mask id="mask1_6117_45065" style="mask-type:alpha" maskUnits="userSpaceOnUse" x="10" y="11" width="12" height="10">
<path fill-rule="evenodd" clip-rule="evenodd" d="M20.2057 12.0748L14.7039 17.7302L11.8621 14.8033C11.6748 14.5799 11.3993 14.4393 11.0909 14.4393C10.5307 14.4393 10.0762 14.9056 10.0762 15.4805C10.0762 15.7961 10.2132 16.0796 10.4294 16.2702L13.9937 19.9267C14.168 20.1134 14.4131 20.229 14.6849 20.229C14.6918 20.229 14.6986 20.229 14.7055 20.229C14.7085 20.229 14.7123 20.229 14.7169 20.229C14.9902 20.229 15.2376 20.1134 15.415 19.9267L21.627 13.5417C21.8097 13.3535 21.9223 13.0941 21.9223 12.8075C21.9223 12.5208 21.8097 12.2615 21.627 12.0732C21.4458 11.8849 21.1945 11.7686 20.9167 11.7686C20.6388 11.7686 20.3876 11.8849 20.2064 12.0732L20.2057 12.0748Z" fill="white"/>
</mask>
<g mask="url(#mask1_6117_45065)">
<path fill-rule="evenodd" clip-rule="evenodd" d="M8.38477 8.38428H23.6155V23.6131H8.38477V8.38428Z" fill="#41A674"/>
</g>
</svg>
