<svg xmlns="http://www.w3.org/2000/svg" viewBox="0 0 239 212"><g fill="none" fill-rule="evenodd" transform="translate(-.548)"><g transform="translate(19.674)"><path fill="#F4C210" fill-rule="nonzero" d="M185.496 0l-5.621 211.339L42.95 184.48 0 74.673z"/><ellipse cx="101.18" cy="128.212" fill="#FFF" fill-rule="nonzero" rx="33.727" ry="33.814"/><path stroke="#D72C2C" stroke-linecap="square" stroke-width="3" d="M101.882 119.054v13.385"/><path fill="#2C74D7" fill-rule="nonzero" d="M0 74.673L32.321 1.409l46.393 41.577z"/><path fill="#D72C2C" fill-rule="nonzero" d="M173 21.134l-1.025 38.04-44.095-19.876zM113.845 108.504l-11.75 12.647-13.58-12.68z"/><path d="M111.344 146.058l9.181-1.878"/></g><g fill="#160728" fill-rule="nonzero"><path d="M190.916 136.336l43.98 18.669-2.202 5.188-43.98-18.67zM190.506 123.914l43.98-18.669-2.202-5.188-43.98 18.669zM191.117 132.438h47.779v-5.636h-47.78z"/></g><g fill="#160728" fill-rule="nonzero"><path d="M49.164 123.918l-43.98-18.669 2.202-5.188 43.98 18.669zM49.583 136.318l-43.98 18.669 2.202 5.188 43.98-18.669zM48.972 127.794H1.193v5.636h47.78z"/></g><path stroke="#160728" stroke-width="6" d="M96.964 108.487c0-7.003-5.663-12.68-12.648-12.68-6.985 0-12.647 5.677-12.647 12.68M170.038 108.487c0-7.003-5.663-12.68-12.648-12.68-6.985 0-12.647 5.677-12.647 12.68"/><ellipse cx="172.87" cy="128.484" fill="#D72C2C" fill-rule="nonzero" rx="8.403" ry="8.406"/><ellipse cx="67.227" cy="128.484" fill="#D72C2C" fill-rule="nonzero" rx="8.403" ry="8.406"/></g></svg>