<svg xmlns="http://www.w3.org/2000/svg" viewBox="0 0 512 512"><path d="M217.1 274c9.2-8.4 15.6-14.8 19.2-19.3 5.3-6.7 9.2-13.2 11.7-19.4 2.5-6.1 3.7-12.6 3.7-19.4 0-12-4.3-22-12.9-30-8.6-8.1-20.5-12.1-35.5-12.1-13.8 0-25.2 3.5-34.4 10.4-9.2 7-14.6 18.4-16.3 34.4l29.2 2.9c.6-8.5 2.6-14.5 6.2-18.2 3.6-3.6 8.5-5.5 14.6-5.5 6.2 0 11 1.7 14.5 5.2s5.3 8.5 5.3 14.9c0 5.9-2 11.8-6 17.8-3 4.3-11.1 12.6-24.3 24.8-16.4 15.1-27.4 27.2-32.9 36.3-5.6 9.1-8.9 18.8-10 28.9h102.6v-26.9h-58.2c1.5-2.6 3.5-5.3 6-8 2.4-2.9 8.3-8.4 17.5-16.8zM357.3 325.7v-30.4h19v-25.5h-19v-96h-24.6l-66.3 96.1v25.4h62.5v30.4h28.4zm-63.5-56l35.1-51.7v51.7h-35.1z"/><path d="M480.1 63.2c-11.1-.9-21 7.2-22 18.3l-2.6 29.6C410.2 50.1 337.1 10.6 254.7 11 118 11.7 8.4 121.1 8.7 256.5 8.9 391.6 119.6 501 256 501c45.3 0 87.7-12.1 124.2-33.1 10.6-6.1 13.5-20 6.2-29.8-6.3-8.4-17.9-10.7-27-5.4-30.4 17.5-65.7 27.5-103.4 27.5-113.8 0-206-91.3-206.1-204C49.8 143.1 141.8 51.8 256 51.8c69.8 0 131.4 34.3 168.7 86.9l-32.2-2.8c-11.2-.9-21 7.2-22 18.3-1 11.1 7.3 20.8 18.4 21.8l80.5 7c.6 0 1.2.1 1.8.1 10.4 0 19.3-7.9 20.2-18.3l7.1-79.7c1.1-11.1-7.2-20.9-18.4-21.9z"/></svg>